<mxfile host="app.diagrams.net" modified="2021-05-19T08:14:27.475Z" agent="5.0 (Windows NT 10.0; Win64; x64) AppleWebKit/537.36 (KHTML, like Gecko) Chrome/90.0.4430.212 Safari/537.36" etag="_k0W0sB0l-4RjlY7bRqZ" version="14.6.13" type="github">
  <diagram id="C5RBs43oDa-KdzZeNtuy" name="Page-1">
    <mxGraphModel dx="1038" dy="556" grid="1" gridSize="10" guides="1" tooltips="1" connect="1" arrows="1" fold="1" page="1" pageScale="1" pageWidth="583" pageHeight="650" math="0" shadow="0">
      <root>
        <mxCell id="WIyWlLk6GJQsqaUBKTNV-0" />
        <mxCell id="WIyWlLk6GJQsqaUBKTNV-1" parent="WIyWlLk6GJQsqaUBKTNV-0" />
        <mxCell id="ub61AXWHruAjWyti64VA-51" value="" style="edgeStyle=orthogonalEdgeStyle;rounded=0;orthogonalLoop=1;jettySize=auto;html=1;shape=flexArrow;" parent="WIyWlLk6GJQsqaUBKTNV-1" source="ub61AXWHruAjWyti64VA-34" target="WIyWlLk6GJQsqaUBKTNV-11" edge="1">
          <mxGeometry relative="1" as="geometry" />
        </mxCell>
        <mxCell id="ub61AXWHruAjWyti64VA-34" value="" style="rounded=1;whiteSpace=wrap;html=1;dashed=1;" parent="WIyWlLk6GJQsqaUBKTNV-1" vertex="1">
          <mxGeometry x="230.75" y="531" width="142.5" height="70" as="geometry" />
        </mxCell>
        <mxCell id="ub61AXWHruAjWyti64VA-50" value="" style="edgeStyle=orthogonalEdgeStyle;rounded=0;orthogonalLoop=1;jettySize=auto;html=1;shape=flexArrow;" parent="WIyWlLk6GJQsqaUBKTNV-1" source="ub61AXWHruAjWyti64VA-33" target="ub61AXWHruAjWyti64VA-1" edge="1">
          <mxGeometry relative="1" as="geometry" />
        </mxCell>
        <mxCell id="ub61AXWHruAjWyti64VA-33" value="" style="rounded=1;whiteSpace=wrap;html=1;dashed=1;" parent="WIyWlLk6GJQsqaUBKTNV-1" vertex="1">
          <mxGeometry x="232" y="406" width="140" height="80" as="geometry" />
        </mxCell>
        <mxCell id="ub61AXWHruAjWyti64VA-45" value="" style="edgeStyle=orthogonalEdgeStyle;rounded=0;orthogonalLoop=1;jettySize=auto;html=1;" parent="WIyWlLk6GJQsqaUBKTNV-1" source="ub61AXWHruAjWyti64VA-30" edge="1">
          <mxGeometry relative="1" as="geometry">
            <mxPoint x="302" y="406" as="targetPoint" />
          </mxGeometry>
        </mxCell>
        <mxCell id="ub61AXWHruAjWyti64VA-49" value="" style="edgeStyle=orthogonalEdgeStyle;rounded=0;orthogonalLoop=1;jettySize=auto;html=1;shape=flexArrow;" parent="WIyWlLk6GJQsqaUBKTNV-1" source="ub61AXWHruAjWyti64VA-30" target="ub61AXWHruAjWyti64VA-0" edge="1">
          <mxGeometry relative="1" as="geometry" />
        </mxCell>
        <mxCell id="ub61AXWHruAjWyti64VA-30" value="" style="rounded=1;whiteSpace=wrap;html=1;dashed=1;" parent="WIyWlLk6GJQsqaUBKTNV-1" vertex="1">
          <mxGeometry x="234.5" y="276" width="135" height="100" as="geometry" />
        </mxCell>
        <mxCell id="ub61AXWHruAjWyti64VA-48" value="" style="edgeStyle=orthogonalEdgeStyle;rounded=0;orthogonalLoop=1;jettySize=auto;html=1;shape=flexArrow;" parent="WIyWlLk6GJQsqaUBKTNV-1" source="ub61AXWHruAjWyti64VA-29" target="WIyWlLk6GJQsqaUBKTNV-12" edge="1">
          <mxGeometry relative="1" as="geometry" />
        </mxCell>
        <mxCell id="ub61AXWHruAjWyti64VA-29" value="" style="rounded=1;whiteSpace=wrap;html=1;dashed=1;" parent="WIyWlLk6GJQsqaUBKTNV-1" vertex="1">
          <mxGeometry x="232" y="163" width="140" height="86" as="geometry" />
        </mxCell>
        <mxCell id="ub61AXWHruAjWyti64VA-42" value="" style="edgeStyle=orthogonalEdgeStyle;rounded=0;orthogonalLoop=1;jettySize=auto;html=1;" parent="WIyWlLk6GJQsqaUBKTNV-1" source="ub61AXWHruAjWyti64VA-28" edge="1">
          <mxGeometry relative="1" as="geometry">
            <mxPoint x="302" y="166" as="targetPoint" />
          </mxGeometry>
        </mxCell>
        <mxCell id="ub61AXWHruAjWyti64VA-47" value="" style="edgeStyle=orthogonalEdgeStyle;rounded=0;orthogonalLoop=1;jettySize=auto;html=1;shape=flexArrow;" parent="WIyWlLk6GJQsqaUBKTNV-1" source="ub61AXWHruAjWyti64VA-28" target="WIyWlLk6GJQsqaUBKTNV-3" edge="1">
          <mxGeometry relative="1" as="geometry" />
        </mxCell>
        <mxCell id="ub61AXWHruAjWyti64VA-28" value="" style="rounded=1;whiteSpace=wrap;html=1;dashed=1;" parent="WIyWlLk6GJQsqaUBKTNV-1" vertex="1">
          <mxGeometry x="232" y="40" width="140" height="81" as="geometry" />
        </mxCell>
        <mxCell id="ub61AXWHruAjWyti64VA-41" value="" style="edgeStyle=orthogonalEdgeStyle;rounded=0;orthogonalLoop=1;jettySize=auto;html=1;entryX=1;entryY=0.5;entryDx=0;entryDy=0;shape=flexArrow;" parent="WIyWlLk6GJQsqaUBKTNV-1" source="ub61AXWHruAjWyti64VA-26" target="ub61AXWHruAjWyti64VA-30" edge="1">
          <mxGeometry relative="1" as="geometry" />
        </mxCell>
        <mxCell id="ub61AXWHruAjWyti64VA-26" value="" style="rounded=1;whiteSpace=wrap;html=1;dashed=1;" parent="WIyWlLk6GJQsqaUBKTNV-1" vertex="1">
          <mxGeometry x="402" y="291" width="140" height="70" as="geometry" />
        </mxCell>
        <mxCell id="ub61AXWHruAjWyti64VA-40" value="" style="edgeStyle=orthogonalEdgeStyle;rounded=0;orthogonalLoop=1;jettySize=auto;html=1;shape=flexArrow;" parent="WIyWlLk6GJQsqaUBKTNV-1" source="ub61AXWHruAjWyti64VA-25" edge="1">
          <mxGeometry relative="1" as="geometry">
            <mxPoint x="374" y="206" as="targetPoint" />
          </mxGeometry>
        </mxCell>
        <mxCell id="ub61AXWHruAjWyti64VA-25" value="" style="rounded=1;whiteSpace=wrap;html=1;dashed=1;" parent="WIyWlLk6GJQsqaUBKTNV-1" vertex="1">
          <mxGeometry x="402" y="171" width="140" height="70" as="geometry" />
        </mxCell>
        <mxCell id="ub61AXWHruAjWyti64VA-24" value="" style="rounded=1;whiteSpace=wrap;html=1;dashed=1;" parent="WIyWlLk6GJQsqaUBKTNV-1" vertex="1">
          <mxGeometry x="402" y="45.5" width="140" height="70" as="geometry" />
        </mxCell>
        <mxCell id="ub61AXWHruAjWyti64VA-2" value="" style="edgeStyle=orthogonalEdgeStyle;rounded=0;orthogonalLoop=1;jettySize=auto;html=1;" parent="WIyWlLk6GJQsqaUBKTNV-1" source="WIyWlLk6GJQsqaUBKTNV-3" target="WIyWlLk6GJQsqaUBKTNV-12" edge="1">
          <mxGeometry relative="1" as="geometry" />
        </mxCell>
        <mxCell id="WIyWlLk6GJQsqaUBKTNV-3" value="绪论" style="rounded=1;whiteSpace=wrap;html=1;fontSize=12;glass=0;strokeWidth=1;shadow=0;" parent="WIyWlLk6GJQsqaUBKTNV-1" vertex="1">
          <mxGeometry x="42" y="60.5" width="120" height="40" as="geometry" />
        </mxCell>
        <mxCell id="WIyWlLk6GJQsqaUBKTNV-11" value="总结与展望" style="rounded=1;whiteSpace=wrap;html=1;fontSize=12;glass=0;strokeWidth=1;shadow=0;" parent="WIyWlLk6GJQsqaUBKTNV-1" vertex="1">
          <mxGeometry x="42" y="546" width="120" height="40" as="geometry" />
        </mxCell>
        <mxCell id="ub61AXWHruAjWyti64VA-3" value="" style="edgeStyle=orthogonalEdgeStyle;rounded=0;orthogonalLoop=1;jettySize=auto;html=1;" parent="WIyWlLk6GJQsqaUBKTNV-1" source="WIyWlLk6GJQsqaUBKTNV-12" target="ub61AXWHruAjWyti64VA-0" edge="1">
          <mxGeometry relative="1" as="geometry" />
        </mxCell>
        <mxCell id="WIyWlLk6GJQsqaUBKTNV-12" value="基本问题与相关研究" style="rounded=1;whiteSpace=wrap;html=1;fontSize=12;glass=0;strokeWidth=1;shadow=0;" parent="WIyWlLk6GJQsqaUBKTNV-1" vertex="1">
          <mxGeometry x="42" y="186" width="120" height="40" as="geometry" />
        </mxCell>
        <mxCell id="ub61AXWHruAjWyti64VA-4" value="" style="edgeStyle=orthogonalEdgeStyle;rounded=0;orthogonalLoop=1;jettySize=auto;html=1;" parent="WIyWlLk6GJQsqaUBKTNV-1" source="ub61AXWHruAjWyti64VA-0" target="ub61AXWHruAjWyti64VA-1" edge="1">
          <mxGeometry relative="1" as="geometry" />
        </mxCell>
        <mxCell id="ub61AXWHruAjWyti64VA-0" value="方法介绍" style="rounded=1;whiteSpace=wrap;html=1;fontSize=12;glass=0;strokeWidth=1;shadow=0;" parent="WIyWlLk6GJQsqaUBKTNV-1" vertex="1">
          <mxGeometry x="42" y="306" width="120" height="40" as="geometry" />
        </mxCell>
        <mxCell id="ub61AXWHruAjWyti64VA-5" value="" style="edgeStyle=orthogonalEdgeStyle;rounded=0;orthogonalLoop=1;jettySize=auto;html=1;" parent="WIyWlLk6GJQsqaUBKTNV-1" source="ub61AXWHruAjWyti64VA-1" target="WIyWlLk6GJQsqaUBKTNV-11" edge="1">
          <mxGeometry relative="1" as="geometry" />
        </mxCell>
        <mxCell id="ub61AXWHruAjWyti64VA-1" value="实验验证" style="rounded=1;whiteSpace=wrap;html=1;fontSize=12;glass=0;strokeWidth=1;shadow=0;" parent="WIyWlLk6GJQsqaUBKTNV-1" vertex="1">
          <mxGeometry x="42" y="426" width="120" height="40" as="geometry" />
        </mxCell>
        <mxCell id="ub61AXWHruAjWyti64VA-6" value="研究背景与意义" style="rounded=0;whiteSpace=wrap;html=1;" parent="WIyWlLk6GJQsqaUBKTNV-1" vertex="1">
          <mxGeometry x="242" y="56" width="120" height="20" as="geometry" />
        </mxCell>
        <mxCell id="ub61AXWHruAjWyti64VA-7" value="研究思路" style="rounded=0;whiteSpace=wrap;html=1;" parent="WIyWlLk6GJQsqaUBKTNV-1" vertex="1">
          <mxGeometry x="242" y="86" width="120" height="20" as="geometry" />
        </mxCell>
        <mxCell id="ub61AXWHruAjWyti64VA-8" value="联邦学习的定义及分类" style="rounded=0;whiteSpace=wrap;html=1;" parent="WIyWlLk6GJQsqaUBKTNV-1" vertex="1">
          <mxGeometry x="242" y="171" width="120" height="30" as="geometry" />
        </mxCell>
        <mxCell id="ub61AXWHruAjWyti64VA-43" value="" style="edgeStyle=orthogonalEdgeStyle;rounded=0;orthogonalLoop=1;jettySize=auto;html=1;exitX=0.5;exitY=1;exitDx=0;exitDy=0;" parent="WIyWlLk6GJQsqaUBKTNV-1" source="ub61AXWHruAjWyti64VA-29" edge="1">
          <mxGeometry relative="1" as="geometry">
            <mxPoint x="302" y="256" as="sourcePoint" />
            <mxPoint x="302" y="276" as="targetPoint" />
          </mxGeometry>
        </mxCell>
        <mxCell id="ub61AXWHruAjWyti64VA-9" value="联邦学习通信效率相关研究" style="rounded=0;whiteSpace=wrap;html=1;" parent="WIyWlLk6GJQsqaUBKTNV-1" vertex="1">
          <mxGeometry x="242" y="211" width="120" height="30" as="geometry" />
        </mxCell>
        <mxCell id="ub61AXWHruAjWyti64VA-10" value="Non-IID处理" style="rounded=0;whiteSpace=wrap;html=1;" parent="WIyWlLk6GJQsqaUBKTNV-1" vertex="1">
          <mxGeometry x="242" y="286" width="120" height="20" as="geometry" />
        </mxCell>
        <mxCell id="ub61AXWHruAjWyti64VA-13" value="Top-K压缩优化法" style="rounded=0;whiteSpace=wrap;html=1;" parent="WIyWlLk6GJQsqaUBKTNV-1" vertex="1">
          <mxGeometry x="242" y="316" width="120" height="20" as="geometry" />
        </mxCell>
        <mxCell id="ub61AXWHruAjWyti64VA-14" value="动态权重优化" style="rounded=0;whiteSpace=wrap;html=1;" parent="WIyWlLk6GJQsqaUBKTNV-1" vertex="1">
          <mxGeometry x="242" y="346" width="120" height="20" as="geometry" />
        </mxCell>
        <mxCell id="ub61AXWHruAjWyti64VA-15" value="消融实验" style="rounded=0;whiteSpace=wrap;html=1;" parent="WIyWlLk6GJQsqaUBKTNV-1" vertex="1">
          <mxGeometry x="242" y="421" width="120" height="20" as="geometry" />
        </mxCell>
        <mxCell id="ub61AXWHruAjWyti64VA-46" value="" style="edgeStyle=orthogonalEdgeStyle;rounded=0;orthogonalLoop=1;jettySize=auto;html=1;exitX=0.5;exitY=1;exitDx=0;exitDy=0;entryX=0.5;entryY=0.071;entryDx=0;entryDy=0;entryPerimeter=0;" parent="WIyWlLk6GJQsqaUBKTNV-1" source="ub61AXWHruAjWyti64VA-33" target="ub61AXWHruAjWyti64VA-34" edge="1">
          <mxGeometry relative="1" as="geometry">
            <mxPoint x="302" y="496" as="sourcePoint" />
            <mxPoint x="302" y="526" as="targetPoint" />
          </mxGeometry>
        </mxCell>
        <mxCell id="ub61AXWHruAjWyti64VA-16" value="框架验证" style="rounded=0;whiteSpace=wrap;html=1;" parent="WIyWlLk6GJQsqaUBKTNV-1" vertex="1">
          <mxGeometry x="242" y="451" width="120" height="20" as="geometry" />
        </mxCell>
        <mxCell id="ub61AXWHruAjWyti64VA-17" value="总结" style="rounded=0;whiteSpace=wrap;html=1;" parent="WIyWlLk6GJQsqaUBKTNV-1" vertex="1">
          <mxGeometry x="242" y="541" width="120" height="20" as="geometry" />
        </mxCell>
        <mxCell id="ub61AXWHruAjWyti64VA-18" value="展望" style="rounded=0;whiteSpace=wrap;html=1;" parent="WIyWlLk6GJQsqaUBKTNV-1" vertex="1">
          <mxGeometry x="242" y="571" width="120" height="20" as="geometry" />
        </mxCell>
        <mxCell id="ub61AXWHruAjWyti64VA-39" value="" style="edgeStyle=orthogonalEdgeStyle;rounded=0;orthogonalLoop=1;jettySize=auto;html=1;entryX=1;entryY=0.5;entryDx=0;entryDy=0;shape=flexArrow;" parent="WIyWlLk6GJQsqaUBKTNV-1" target="ub61AXWHruAjWyti64VA-28" edge="1">
          <mxGeometry relative="1" as="geometry">
            <mxPoint x="402" y="81" as="sourcePoint" />
          </mxGeometry>
        </mxCell>
        <mxCell id="ub61AXWHruAjWyti64VA-20" value="提出问题" style="rounded=0;whiteSpace=wrap;html=1;" parent="WIyWlLk6GJQsqaUBKTNV-1" vertex="1">
          <mxGeometry x="412" y="70.5" width="120" height="20" as="geometry" />
        </mxCell>
        <mxCell id="ub61AXWHruAjWyti64VA-21" value="相关研究" style="rounded=0;whiteSpace=wrap;html=1;" parent="WIyWlLk6GJQsqaUBKTNV-1" vertex="1">
          <mxGeometry x="412" y="181" width="120" height="20" as="geometry" />
        </mxCell>
        <mxCell id="ub61AXWHruAjWyti64VA-22" value="方法回顾" style="rounded=0;whiteSpace=wrap;html=1;" parent="WIyWlLk6GJQsqaUBKTNV-1" vertex="1">
          <mxGeometry x="412" y="211" width="120" height="20" as="geometry" />
        </mxCell>
        <mxCell id="ub61AXWHruAjWyti64VA-23" value="模型介绍" style="rounded=0;whiteSpace=wrap;html=1;" parent="WIyWlLk6GJQsqaUBKTNV-1" vertex="1">
          <mxGeometry x="412" y="316" width="120" height="20" as="geometry" />
        </mxCell>
      </root>
    </mxGraphModel>
  </diagram>
</mxfile>
